PathFileType	4	(X/Y/Z)	Patient4_TMGait_0pt5_01_right_28.trc.trc
DataRate	CameraRate	NumFrames	NumMarkers	Units	OrigDataRate	OrigDataStartFrame	OrigNumFrames
76.086956521739	76.086956521739	6	33	mm	76.086956521739	53	       141
Frame#	Time	L.ASIS			Sacral			L.Shoulder			Chest			R.Shoulder			Neck			R.ASIS			R.Thigh.Superior			R.Thigh.Lateral			R.Thigh.Inferior			R.Patella			L.Thigh.Superior			L.Thigh.Lateral			L.Thigh.Inferior			L.Patella			L.Shank.Superior			L.Shank.Lateral			L.Shank.Inferior			R.Shank.Superior			R.Shank.Lateral			R.Shank.Inferior			R.Heel			R.Midfoot.Superior			R.Midfoot.Lateral			R.Toe			L.Heel			L.Midfoot.Lateral			L.Midfoot.Superior			L.Toe			L.Elbow			L.Wrist			R.Elbow			R.Wrist			
		X1	Y1	Z1	X2	Y2	Z2	X3	Y3	Z3	X4	Y4	Z4	X5	Y5	Z5	X6	Y6	Z6	X7	Y7	Z7	X8	Y8	Z8	X9	Y9	Z9	X10	Y10	Z10	X11	Y11	Z11	X12	Y12	Z12	X13	Y13	Z13	X14	Y14	Z14	X15	Y15	Z15	X16	Y16	Z16	X17	Y17	Z17	X18	Y18	Z18	X19	Y19	Z19	X20	Y20	Z20	X21	Y21	Z21	X22	Y22	Z22	X23	Y23	Z23	X24	Y24	Z24	X25	Y25	Z25	X26	Y26	Z26	X27	Y27	Z27	X28	Y28	Z28	X29	Y29	Z29	X30	Y30	Z30	X31	Y31	Z31	X32	Y32	Z32	X33	Y33	Z33	

53	37.433428571429	883.959789056830	965.961350027513	352.362300316987	686.186959874054	1008.841904811562	529.714916426604	838.336762870065	1435.324023501950	333.160178683958	958.570107985603	1367.724834192070	482.913247037106	893.492431060404	1442.953515206024	665.197460781195	857.135321971607	1498.138387198243	482.230434246350	924.507529440912	942.545817394424	622.727841241670	958.810282340096	740.093243994900	587.984573990417	879.565793048904	632.945579501214	650.624131665505	947.727369389410	580.034166297358	563.194419192757	945.665811908480	491.652397548336	566.213742324531	973.617499272544	789.917674561736	378.575612988039	931.724481739962	662.497045595891	302.949653132286	1038.721302279013	603.266376910215	359.828612629426	1056.236053222393	515.238583675329	351.176451282212	998.698136215989	443.434019112042	345.031637779464	863.964380709530	380.580630364847	301.333085565388	875.182985003356	250.401055954964	354.030696622054	917.634997609761	403.637722315668	573.946397415398	850.001087315773	299.864168374114	637.868085403346	884.201562233616	205.754971207225	570.502588362852	744.720539701754	43.123722441071	547.014759358618	917.746652947574	96.897732400006	572.765590200161	831.904839848341	36.714729301325	617.392669911827	1039.301368554586	43.648356381139	595.115858382074	699.439140487102	159.653298384402	398.329693159127	758.265178554331	120.723755383045	315.960284245455	861.576534406622	142.664627443564	332.107935999690	951.453874285693	41.607289663411	302.186535360680	779.195080836174	1081.920894543782	222.943619753306	877.393599364312	839.664356527632	194.737049961970	935.052856472947	1110.379763553606	808.480782593658	1150.127718997007	975.863148833210	760.171054189762	
54	37.446571428571	881.667076005974	966.809983909543	352.628866505644	685.137999113799	1009.837711454044	531.420601497901	837.339255515616	1435.803899804013	334.275071800049	958.685897110404	1367.635677581512	482.871732572880	895.814537912489	1443.299303775269	665.774817559035	857.621348074306	1498.493069691009	483.139909007464	923.669449626092	942.320853478098	622.697683671477	955.989361898455	739.507361771247	587.544192005031	876.321938840384	632.945302988570	650.840760979050	943.429867852245	579.550984776955	563.024702322143	940.829540000430	491.277562610831	566.240718374073	971.893045806548	792.036825590834	378.518572352252	930.564119883748	664.202356749104	303.115603303802	1037.836310032200	605.743503417198	359.876995484079	1056.895846483166	519.383060110622	351.150038743688	1003.346929357902	446.276753024269	344.680881697200	873.127334208332	375.149331037077	301.024473618602	893.302369808196	245.626372299785	353.027156667053	912.435059278980	403.371843101983	573.954059942914	844.457933913971	299.848767979901	637.948066079696	878.198764698276	205.633841664887	570.484885006431	738.121209956522	43.175405251530	547.029422151490	911.204973207678	96.866290749494	572.794205373221	825.299309149987	36.747967497784	617.416839567990	1032.708265564995	43.468303532653	595.176169114834	724.611460331255	142.139963469901	397.708170613979	785.570913747524	108.760886679243	314.532903452431	887.052246888958	137.945584070657	330.377775365226	983.870321100923	44.413361393453	298.800716519938	774.026669952110	1082.860508943226	225.097647839204	866.103630387541	838.395005579138	195.905143061996	944.071127427283	1111.512594531050	807.914641996250	1163.493737702686	986.445524713291	755.282099646974	
55	37.459714285714	879.474002944440	967.511673753121	352.781293102841	684.169768345532	1010.712389651476	533.002327806074	836.396524459698	1436.192317727526	335.264066213579	958.790898140821	1367.463667620640	482.746189993464	898.022210315905	1443.516261284550	666.216374971723	858.059967693662	1498.748518826150	483.941881338273	922.856961244426	942.046335815413	622.565689895366	953.300443494196	738.906349919378	587.034606517061	873.231190665255	632.912073176913	651.003214623327	939.279656458056	579.065678964792	562.815838345874	936.127721165214	490.881640020808	566.229111252273	969.764621807094	793.432744094751	378.391249652201	928.597887309482	665.305561508402	303.217790735523	1035.812592846480	607.265744040182	360.128149277785	1056.310779088226	522.874644625183	351.385147665891	1007.007589218542	448.778663429449	344.487310147251	882.307320895484	369.280179630057	300.355122644129	911.557733616172	241.073654761698	351.903552723264	907.359909857251	403.063892581806	573.929990767215	839.019177905512	299.802271339317	638.003888509579	872.264031331434	205.476281698148	570.443301249075	731.523984373042	43.234821392073	547.036293743056	904.668723445219	96.829850979011	572.807125860003	818.697170751256	36.778588915932	617.436548638638	1026.114034627547	43.284410872211	595.227518705822	750.979926526633	124.971609880056	396.347881525026	814.089710021604	97.332642630350	312.719793375644	913.072436248868	133.819042577954	328.661111466883	1016.578105649936	48.396896424558	296.050163954304	768.983272915710	1083.757933836555	227.107536233042	855.260196881624	837.370567162374	197.048560041679	952.727383314396	1112.564066989283	806.984570504844	1175.944063747425	996.972695898856	750.012662163689	
56	37.472857142857	877.397459098306	968.050301520704	352.818118116437	683.291000405716	1011.441265636322	534.455213791994	835.508614091549	1436.473122854450	336.112730277287	958.874660307839	1367.204563785181	482.536077891085	900.071188466347	1443.596967654232	666.515689658743	858.451898052469	1498.893661540972	484.619950594977	922.079040115503	941.720964208825	622.340467930725	950.774102868675	738.286615399374	586.476057862227	870.319235637744	632.830108197266	651.111858923216	935.321719334668	578.567318714698	562.574937928865	931.591984396235	490.446708624825	566.171817941035	967.263136989943	794.087099671732	378.223258930925	925.909749972843	665.822474799034	303.224298301807	1032.738023780919	607.848696952998	360.589142550875	1054.587695768003	525.698638984452	351.899376715431	1009.703029110012	450.970492761871	344.475283354545	891.482307974496	363.234028322419	299.318280442579	929.680670642479	237.030301984756	350.725369377869	902.444766029255	402.701584259508	573.871242952607	833.709249622130	299.720497354901	638.034485379799	866.409560711990	205.276210280443	570.376675933745	724.926980340213	43.302085713390	547.039169479486	898.136210174580	96.787519486458	572.803229539838	812.097066275853	36.805971591996	617.453257486847	1019.518396414894	43.101468150517	595.270733637775	778.130820660654	108.752714919864	394.275257302632	843.411064061695	86.910103688062	310.609397050084	939.232616315838	130.598431264599	327.068769843940	1049.021053223421	53.721172357989	294.183242244354	764.101947713091	1084.584179018517	228.961755007032	844.919527910775	836.535836258990	198.149878068502	961.011997984646	1113.509658145696	805.693077952723	1187.458897149899	1007.348179496322	744.393740092769	
57	37.486000000000	875.451400127288	968.420128147388	352.743286571189	682.504042937006	1012.008975354832	535.769799597567	834.674386879178	1436.635789599196	336.807434678687	958.928443638491	1366.860880474588	482.240316046761	901.925152858055	1443.546220682275	666.667397635218	858.797425182412	1498.924590864618	485.156960580138	921.344058401370	941.344444361618	622.034639957045	948.425017136854	737.642807813642	585.885119782497	867.597658083521	632.684862605581	651.165989182716	931.581020989148	578.042945486223	562.302778191941	927.239339365043	489.956433380767	566.059833538656	964.436725907799	794.022437503895	378.036395871634	922.618009257623	665.806078998746	303.099440731582	1028.755807732865	607.567598237396	361.234556483814	1051.879796475723	527.876415942664	352.675084685019	1011.491082157482	452.891620146913	344.635632863366	900.572149869503	357.269066574553	297.948212058584	947.370291151190	233.719802878276	349.555363103576	897.708252598294	402.275215537346	573.772665519451	828.539426190054	299.601035770907	638.036764952338	860.638584712742	205.030468919305	570.283724495127	718.328512296602	43.374649890489	547.041465500513	891.604522350054	96.739084719204	572.781774010431	805.496711552861	36.829439414495	617.467861445667	1012.920395869026	42.926078617773	595.306610205576	805.547360223318	93.986514835267	391.601742323510	873.004845989343	77.855599608021	308.327178139922	965.070039528710	128.495671631290	325.691003560860	1080.616287438347	60.415018507834	293.342468250620	759.423562394249	1085.315130418444	230.646288041904	835.133927687581	835.838456206988	199.192278833484	968.911303179769	1114.337108712344	804.042887942629	1198.022957875628	1017.483265391671	738.454707469284	
58	37.499142857143	873.646457852490	968.624648086417	352.566191499315	681.804164395928	1012.409859042392	536.931942695889	833.891542355870	1436.675092314133	337.335771386414	958.945537744611	1366.440524874702	481.857278737035	903.557962634923	1443.378750295919	666.667255482941	859.095318902412	1498.843614882157	485.536406925672	920.659687423582	940.917189042178	621.663328778881	946.254316086121	736.968601951214	585.274015951588	865.066477513400	632.463962973965	651.163566862596	928.065143474491	577.478875461111	561.994499043924	923.076920641664	489.397408084502	565.883655888962	961.355564442770	793.304605368683	377.845954119040	918.876178371147	665.340466349034	302.814618413817	1024.065638937749	606.552268742411	362.011987791447	1048.383685369990	529.459838489707	353.661558274649	1012.462561417385	454.580431249251	344.927309858863	909.433897692514	351.620428418420	296.323429897822	964.299674648217	231.281143588021	348.446881004781	893.154070660508	401.777736793124	573.627449557968	823.509731975952	299.443128084330	638.005803018573	854.946513894969	204.738333523303	570.162988352128	711.727268507403	43.448371936612	547.046028501928	885.070247229947	96.685203117485	572.742481642229	798.893486898945	36.848456462984	617.480672945250	1006.318794364550	42.765214985745	595.335926253143	832.623848032937	81.048439902282	388.520415592087	902.223092578488	70.400182200780	306.023104861629	990.067624735591	127.599136865871	324.584080392812	1110.753337138038	68.347616816452	293.529664442358	754.990188543678	1085.931526424987	232.145033038803	825.951742046438	835.230975742646	200.159289020542	976.404147914665	1115.044028726559	802.039617904774	1207.623540628331	1027.297886317189	732.224290159075	
